{"title":"Dana Delany_The_Talk_720p_20110405_TTL","uid":6299894,"size":387240310,"categoryP":"video","categoryS":"hd___tv_shows","magnet":"?xt=urn:btih:24caf7acc83c1739d858e3c8d45003904005b8ee&amp;dn=Dana+Delany_The_Talk_720p_20110405_TTL&amp;tr=udp%3A%2F%2Ftracker.openbittorrent.com%3A80&amp;tr=udp%3A%2F%2Fopen.demonii.com%3A1337&amp;tr=udp%3A%2F%2Ftracker.coppersurfer.tk%3A6969&amp;tr=udp%3A%2F%2Fexodus.desync.com%3A6969","seeders":0,"leechers":0,"uploader":"thetorrentlord","files":2,"time":1302117417,"description":"Just the interview. Enjoy and please share.\t\t\t\t\t\t\t\t\t\t\t\t\t\t\t\t\t\t\t\t\t\t\t\t\t\t\t\t\t\t\t\t\t\t\t\t\t\t\t\t\t\t******************************************************************************************************\t\t\t\t\t\t\t\t\t\t\t\t\t\tThe_Talk_Dana_Delany_720p_20110405_TTL.avi\nFormat                           : AVI\nFormat/Info                      : Audio Video Interleave\nFile size                        : 369 MiB\nDuration                         : 11mn 13s\nOverall bit rate                 : 4 598 Kbps\nMovie name                       : The_Talk_Dana Delany_720p_20110405_TTL.mpg\nDirector                         : created.with.SUPER(C).v2010.bld.37\nWriting application              : SUPER(C)   \n\nVideo\nID                               : 0\nFormat                           : MPEG-4 Visual\nFormat profile                   : Simple@L3\nFormat settings, BVOP            : No\nFormat settings, QPel            : No\nFormat settings, GMC             : No warppoints\nFormat settings, Matrix          : Default (H.263)\nCodec ID                         : XVID\nCodec ID/Hint                    : XviD\nDuration                         : 11mn 13s\nBit rate                         : 4 473 Kbps\nWidth                            : 1 280 pixels\nHeight                           : 720 pixels\nDisplay aspect ratio             : 16:9\nFrame rate                       : 29.970 fps\nColor space                      : YUV\nChroma subsampling               : 4:2:0\nBit depth                        : 8 bits\nScan type                        : Progressive\nBits/(Pixel*Frame)               : 0.162\nStream size                      : 359 MiB (97%)\nWriting library                  : XviD 1.1.2 (UTC 2006-11-01)\n\nAudio\nID                               : 1\nFormat                           : MPEG Audio\nFormat version                   : Version 1\nFormat profile                   : Layer 3\nMode                             : Joint stereo\nMode extension                   : MS Stereo\nCodec ID                         : 55\nCodec ID/Hint                    : MP3\nDuration                         : 11mn 13s\nBit rate mode                    : Constant\nBit rate                         : 112 Kbps\nChannel(s)                       : 2 channels\nSampling rate                    : 48.0 KHz\nStream size                      : 8.99 MiB (2%)\nAlignment                        : Aligned on interleaves\nInterleave, duration             : 24 ms (0.72 video frame)\nInterleave, preload duration     : 24 ms\n\n","torrent":{"xt":"urn:btih:24caf7acc83c1739d858e3c8d45003904005b8ee","amp;dn":"Dana+Delany_The_Talk_720p_20110405_TTL","amp;tr":["udp%3A%2F%2Ftracker.openbittorrent.com%3A80","udp%3A%2F%2Fopen.demonii.com%3A1337","udp%3A%2F%2Ftracker.coppersurfer.tk%3A6969","udp%3A%2F%2Fexodus.desync.com%3A6969"],"infoHash":"24caf7acc83c1739d858e3c8d45003904005b8ee","infoHashBuffer":{"type":"Buffer","data":[36,202,247,172,200,60,23,57,216,88,227,200,212,80,3,144,64,5,184,238]},"announce":[],"urlList":[]}}